<mxfile host="app.diagrams.net" agent="Mozilla/5.0 (Windows NT 10.0; Win64; x64) AppleWebKit/537.36 (KHTML, like Gecko) Chrome/128.0.0.0 Safari/537.36 OPR/114.0.0.0" version="26.0.4">
  <diagram name="Pagina-1" id="nFnhqXaWgymhGS5wxFyl">
    <mxGraphModel dx="1665" dy="719" grid="1" gridSize="10" guides="1" tooltips="1" connect="1" arrows="1" fold="1" page="1" pageScale="1" pageWidth="827" pageHeight="1169" math="0" shadow="0">
      <root>
        <mxCell id="0" />
        <mxCell id="1" parent="0" />
        <mxCell id="K0k_YKdBiOKbLavumed3-5" value="" style="edgeStyle=orthogonalEdgeStyle;rounded=0;orthogonalLoop=1;jettySize=auto;html=1;entryX=0.5;entryY=0;entryDx=0;entryDy=0;" edge="1" parent="1" source="K0k_YKdBiOKbLavumed3-1" target="K0k_YKdBiOKbLavumed3-10">
          <mxGeometry relative="1" as="geometry">
            <mxPoint x="413.5" y="100" as="targetPoint" />
          </mxGeometry>
        </mxCell>
        <mxCell id="K0k_YKdBiOKbLavumed3-1" value="start" style="rounded=1;whiteSpace=wrap;html=1;" vertex="1" parent="1">
          <mxGeometry x="360" y="20" width="120" height="60" as="geometry" />
        </mxCell>
        <mxCell id="K0k_YKdBiOKbLavumed3-9" value="" style="edgeStyle=orthogonalEdgeStyle;rounded=0;orthogonalLoop=1;jettySize=auto;html=1;" edge="1" parent="1" source="K0k_YKdBiOKbLavumed3-6" target="K0k_YKdBiOKbLavumed3-8">
          <mxGeometry relative="1" as="geometry" />
        </mxCell>
        <mxCell id="K0k_YKdBiOKbLavumed3-6" value="vraag&amp;nbsp;“Hoeveel bolletjes wilt u?”" style="shape=parallelogram;perimeter=parallelogramPerimeter;whiteSpace=wrap;html=1;fixedSize=1;rounded=0;" vertex="1" parent="1">
          <mxGeometry x="360" y="200" width="120" height="60" as="geometry" />
        </mxCell>
        <mxCell id="K0k_YKdBiOKbLavumed3-16" value="" style="edgeStyle=orthogonalEdgeStyle;rounded=0;orthogonalLoop=1;jettySize=auto;html=1;" edge="1" parent="1" source="K0k_YKdBiOKbLavumed3-8" target="K0k_YKdBiOKbLavumed3-15">
          <mxGeometry relative="1" as="geometry" />
        </mxCell>
        <mxCell id="K0k_YKdBiOKbLavumed3-39" value="" style="edgeStyle=orthogonalEdgeStyle;rounded=0;orthogonalLoop=1;jettySize=auto;html=1;" edge="1" parent="1" source="K0k_YKdBiOKbLavumed3-8">
          <mxGeometry relative="1" as="geometry">
            <mxPoint x="520" y="300" as="targetPoint" />
            <Array as="points">
              <mxPoint x="510" y="300" />
              <mxPoint x="510" y="300" />
            </Array>
          </mxGeometry>
        </mxCell>
        <mxCell id="K0k_YKdBiOKbLavumed3-41" style="edgeStyle=orthogonalEdgeStyle;rounded=0;orthogonalLoop=1;jettySize=auto;html=1;entryX=1;entryY=0.5;entryDx=0;entryDy=0;" edge="1" parent="1" source="K0k_YKdBiOKbLavumed3-8" target="K0k_YKdBiOKbLavumed3-24">
          <mxGeometry relative="1" as="geometry">
            <mxPoint x="580" y="420" as="targetPoint" />
            <Array as="points">
              <mxPoint x="580" y="350" />
              <mxPoint x="580" y="625" />
            </Array>
          </mxGeometry>
        </mxCell>
        <mxCell id="K0k_YKdBiOKbLavumed3-50" style="edgeStyle=orthogonalEdgeStyle;rounded=0;orthogonalLoop=1;jettySize=auto;html=1;exitX=0;exitY=1;exitDx=0;exitDy=0;entryX=1;entryY=0.5;entryDx=0;entryDy=0;" edge="1" parent="1" source="K0k_YKdBiOKbLavumed3-8" target="K0k_YKdBiOKbLavumed3-49">
          <mxGeometry relative="1" as="geometry" />
        </mxCell>
        <mxCell id="K0k_YKdBiOKbLavumed3-8" value="als aantal bolletjes" style="rhombus;whiteSpace=wrap;html=1;rounded=0;" vertex="1" parent="1">
          <mxGeometry x="380" y="290" width="80" height="80" as="geometry" />
        </mxCell>
        <mxCell id="K0k_YKdBiOKbLavumed3-12" style="edgeStyle=orthogonalEdgeStyle;rounded=0;orthogonalLoop=1;jettySize=auto;html=1;" edge="1" parent="1" source="K0k_YKdBiOKbLavumed3-10" target="K0k_YKdBiOKbLavumed3-6">
          <mxGeometry relative="1" as="geometry" />
        </mxCell>
        <mxCell id="K0k_YKdBiOKbLavumed3-10" value="print &#39;&#39;Welkom bij PapiGelato je mag alle smaken kiezen zo lang&amp;nbsp;&lt;div&gt;het maar vanille ijs is&#39;&#39;&lt;/div&gt;" style="shape=parallelogram;perimeter=parallelogramPerimeter;whiteSpace=wrap;html=1;fixedSize=1;" vertex="1" parent="1">
          <mxGeometry x="345" y="100" width="150" height="80" as="geometry" />
        </mxCell>
        <mxCell id="K0k_YKdBiOKbLavumed3-19" value="" style="edgeStyle=orthogonalEdgeStyle;rounded=0;orthogonalLoop=1;jettySize=auto;html=1;" edge="1" parent="1" source="K0k_YKdBiOKbLavumed3-15" target="K0k_YKdBiOKbLavumed3-18">
          <mxGeometry relative="1" as="geometry" />
        </mxCell>
        <mxCell id="K0k_YKdBiOKbLavumed3-15" value="vraag “Wilt u deze&amp;nbsp;&lt;div&gt;{aantal} bolletje(s) in een&amp;nbsp;&lt;div&gt;hoorntje of een bakje?”&lt;/div&gt;&lt;/div&gt;" style="shape=parallelogram;perimeter=parallelogramPerimeter;whiteSpace=wrap;html=1;fixedSize=1;rounded=0;" vertex="1" parent="1">
          <mxGeometry x="340" y="410" width="160" height="70" as="geometry" />
        </mxCell>
        <mxCell id="K0k_YKdBiOKbLavumed3-17" value="1-3" style="text;html=1;align=center;verticalAlign=middle;resizable=0;points=[];autosize=1;strokeColor=none;fillColor=none;" vertex="1" parent="1">
          <mxGeometry x="414" y="370" width="40" height="30" as="geometry" />
        </mxCell>
        <mxCell id="K0k_YKdBiOKbLavumed3-21" value="" style="edgeStyle=orthogonalEdgeStyle;rounded=0;orthogonalLoop=1;jettySize=auto;html=1;exitX=0.185;exitY=0.669;exitDx=0;exitDy=0;exitPerimeter=0;" edge="1" parent="1" source="K0k_YKdBiOKbLavumed3-18" target="K0k_YKdBiOKbLavumed3-20">
          <mxGeometry relative="1" as="geometry">
            <mxPoint x="390" y="590" as="sourcePoint" />
            <Array as="points">
              <mxPoint x="395" y="560" />
              <mxPoint x="360" y="560" />
            </Array>
          </mxGeometry>
        </mxCell>
        <mxCell id="K0k_YKdBiOKbLavumed3-44" style="edgeStyle=orthogonalEdgeStyle;rounded=0;orthogonalLoop=1;jettySize=auto;html=1;exitX=1;exitY=1;exitDx=0;exitDy=0;entryX=0.5;entryY=0;entryDx=0;entryDy=0;" edge="1" parent="1" source="K0k_YKdBiOKbLavumed3-18" target="K0k_YKdBiOKbLavumed3-24">
          <mxGeometry relative="1" as="geometry">
            <mxPoint x="480" y="590" as="targetPoint" />
            <Array as="points">
              <mxPoint x="440" y="560" />
              <mxPoint x="475" y="560" />
            </Array>
          </mxGeometry>
        </mxCell>
        <mxCell id="K0k_YKdBiOKbLavumed3-63" style="edgeStyle=orthogonalEdgeStyle;rounded=0;orthogonalLoop=1;jettySize=auto;html=1;exitX=0;exitY=0;exitDx=0;exitDy=0;entryX=0.445;entryY=1.02;entryDx=0;entryDy=0;entryPerimeter=0;" edge="1" parent="1" source="K0k_YKdBiOKbLavumed3-18" target="K0k_YKdBiOKbLavumed3-61">
          <mxGeometry relative="1" as="geometry">
            <mxPoint x="290" y="525" as="targetPoint" />
          </mxGeometry>
        </mxCell>
        <mxCell id="K0k_YKdBiOKbLavumed3-18" value="keuze" style="rhombus;whiteSpace=wrap;html=1;rounded=0;" vertex="1" parent="1">
          <mxGeometry x="380" y="504.5" width="80" height="80" as="geometry" />
        </mxCell>
        <mxCell id="K0k_YKdBiOKbLavumed3-54" style="edgeStyle=orthogonalEdgeStyle;rounded=0;orthogonalLoop=1;jettySize=auto;html=1;" edge="1" parent="1" source="K0k_YKdBiOKbLavumed3-20" target="K0k_YKdBiOKbLavumed3-52">
          <mxGeometry relative="1" as="geometry" />
        </mxCell>
        <mxCell id="K0k_YKdBiOKbLavumed3-20" value="verpaking = &#39;hoorntje&#39;" style="whiteSpace=wrap;html=1;rounded=0;" vertex="1" parent="1">
          <mxGeometry x="320" y="600" width="90" height="50" as="geometry" />
        </mxCell>
        <mxCell id="K0k_YKdBiOKbLavumed3-53" style="edgeStyle=orthogonalEdgeStyle;rounded=0;orthogonalLoop=1;jettySize=auto;html=1;entryX=0.5;entryY=0;entryDx=0;entryDy=0;" edge="1" parent="1" source="K0k_YKdBiOKbLavumed3-24" target="K0k_YKdBiOKbLavumed3-52">
          <mxGeometry relative="1" as="geometry" />
        </mxCell>
        <mxCell id="K0k_YKdBiOKbLavumed3-24" value="verpaking = &#39;bakje&#39;" style="rounded=0;whiteSpace=wrap;html=1;" vertex="1" parent="1">
          <mxGeometry x="430" y="600" width="90" height="50" as="geometry" />
        </mxCell>
        <mxCell id="K0k_YKdBiOKbLavumed3-30" value="bakje" style="text;html=1;align=center;verticalAlign=middle;resizable=0;points=[];autosize=1;strokeColor=none;fillColor=none;" vertex="1" parent="1">
          <mxGeometry x="470" y="555" width="50" height="30" as="geometry" />
        </mxCell>
        <mxCell id="K0k_YKdBiOKbLavumed3-31" value="hoorntje" style="text;html=1;align=center;verticalAlign=middle;resizable=0;points=[];autosize=1;strokeColor=none;fillColor=none;" vertex="1" parent="1">
          <mxGeometry x="300" y="555" width="70" height="30" as="geometry" />
        </mxCell>
        <mxCell id="K0k_YKdBiOKbLavumed3-36" value="&amp;gt;8" style="text;html=1;align=center;verticalAlign=middle;resizable=0;points=[];autosize=1;strokeColor=none;fillColor=none;" vertex="1" parent="1">
          <mxGeometry x="335" y="340" width="40" height="30" as="geometry" />
        </mxCell>
        <mxCell id="K0k_YKdBiOKbLavumed3-70" style="edgeStyle=orthogonalEdgeStyle;rounded=0;orthogonalLoop=1;jettySize=auto;html=1;exitX=0.25;exitY=0;exitDx=0;exitDy=0;entryX=1;entryY=0.75;entryDx=0;entryDy=0;" edge="1" parent="1" source="K0k_YKdBiOKbLavumed3-48" target="K0k_YKdBiOKbLavumed3-6">
          <mxGeometry relative="1" as="geometry">
            <mxPoint x="520" y="240" as="targetPoint" />
            <Array as="points">
              <mxPoint x="542" y="242" />
            </Array>
          </mxGeometry>
        </mxCell>
        <mxCell id="K0k_YKdBiOKbLavumed3-48" value="print&amp;nbsp;&lt;span style=&quot;color: light-dark(rgb(0, 0, 0), rgb(255, 255, 255)); background-color: transparent;&quot;&gt;“Sorry,dat&amp;nbsp;&lt;/span&gt;&lt;div&gt;&lt;span style=&quot;color: light-dark(rgb(0, 0, 0), rgb(255, 255, 255)); background-color: transparent;&quot;&gt;snap&amp;nbsp;&lt;/span&gt;&lt;span style=&quot;background-color: transparent; color: light-dark(rgb(0, 0, 0), rgb(255, 255, 255));&quot;&gt;ik niet...”&lt;/span&gt;&lt;/div&gt;" style="shape=parallelogram;perimeter=parallelogramPerimeter;whiteSpace=wrap;html=1;fixedSize=1;" vertex="1" parent="1">
          <mxGeometry x="510" y="270" width="130" height="60" as="geometry" />
        </mxCell>
        <mxCell id="K0k_YKdBiOKbLavumed3-51" style="edgeStyle=orthogonalEdgeStyle;rounded=0;orthogonalLoop=1;jettySize=auto;html=1;exitX=0.5;exitY=0;exitDx=0;exitDy=0;entryX=0;entryY=0.5;entryDx=0;entryDy=0;" edge="1" parent="1" source="K0k_YKdBiOKbLavumed3-49" target="K0k_YKdBiOKbLavumed3-6">
          <mxGeometry relative="1" as="geometry">
            <Array as="points">
              <mxPoint x="260" y="230" />
            </Array>
          </mxGeometry>
        </mxCell>
        <mxCell id="K0k_YKdBiOKbLavumed3-49" value="print “Sorry,&amp;nbsp;&lt;div&gt;zulke grote bakken&amp;nbsp;&lt;div&gt;hebben we niet”&lt;/div&gt;&lt;/div&gt;" style="shape=parallelogram;perimeter=parallelogramPerimeter;whiteSpace=wrap;html=1;fixedSize=1;" vertex="1" parent="1">
          <mxGeometry x="190" y="320" width="130" height="60" as="geometry" />
        </mxCell>
        <mxCell id="K0k_YKdBiOKbLavumed3-68" value="" style="edgeStyle=orthogonalEdgeStyle;rounded=0;orthogonalLoop=1;jettySize=auto;html=1;" edge="1" parent="1" source="K0k_YKdBiOKbLavumed3-52" target="K0k_YKdBiOKbLavumed3-67">
          <mxGeometry relative="1" as="geometry" />
        </mxCell>
        <mxCell id="K0k_YKdBiOKbLavumed3-52" value="print &#39;&#39;Hier is uw {hoorntje/bakje} met {aantal} bolletje(s).&#39;&#39;" style="shape=parallelogram;perimeter=parallelogramPerimeter;whiteSpace=wrap;html=1;fixedSize=1;" vertex="1" parent="1">
          <mxGeometry x="350" y="700" width="140" height="70" as="geometry" />
        </mxCell>
        <mxCell id="K0k_YKdBiOKbLavumed3-55" value="4-8" style="text;html=1;align=center;verticalAlign=middle;resizable=0;points=[];autosize=1;strokeColor=none;fillColor=none;" vertex="1" parent="1">
          <mxGeometry x="485" y="350" width="40" height="30" as="geometry" />
        </mxCell>
        <mxCell id="K0k_YKdBiOKbLavumed3-57" value="else" style="text;html=1;align=center;verticalAlign=middle;resizable=0;points=[];autosize=1;strokeColor=none;fillColor=none;" vertex="1" parent="1">
          <mxGeometry x="450" y="270" width="50" height="30" as="geometry" />
        </mxCell>
        <mxCell id="K0k_YKdBiOKbLavumed3-64" value="" style="edgeStyle=orthogonalEdgeStyle;rounded=0;orthogonalLoop=1;jettySize=auto;html=1;" edge="1" parent="1" source="K0k_YKdBiOKbLavumed3-61" target="K0k_YKdBiOKbLavumed3-15">
          <mxGeometry relative="1" as="geometry">
            <Array as="points">
              <mxPoint x="340" y="450" />
              <mxPoint x="340" y="450" />
            </Array>
          </mxGeometry>
        </mxCell>
        <mxCell id="K0k_YKdBiOKbLavumed3-61" value="print&amp;nbsp;&lt;span style=&quot;color: light-dark(rgb(0, 0, 0), rgb(255, 255, 255)); background-color: transparent;&quot;&gt;“Sorry,dat&amp;nbsp;&lt;/span&gt;&lt;div&gt;&lt;span style=&quot;color: light-dark(rgb(0, 0, 0), rgb(255, 255, 255)); background-color: transparent;&quot;&gt;snap&amp;nbsp;&lt;/span&gt;&lt;span style=&quot;background-color: transparent; color: light-dark(rgb(0, 0, 0), rgb(255, 255, 255));&quot;&gt;ik niet...”&lt;/span&gt;&lt;/div&gt;" style="shape=parallelogram;perimeter=parallelogramPerimeter;whiteSpace=wrap;html=1;fixedSize=1;" vertex="1" parent="1">
          <mxGeometry x="190" y="415" width="120" height="60" as="geometry" />
        </mxCell>
        <mxCell id="K0k_YKdBiOKbLavumed3-65" value="else" style="text;html=1;align=center;verticalAlign=middle;resizable=0;points=[];autosize=1;strokeColor=none;fillColor=none;" vertex="1" parent="1">
          <mxGeometry x="345" y="500" width="50" height="30" as="geometry" />
        </mxCell>
        <mxCell id="K0k_YKdBiOKbLavumed3-71" style="edgeStyle=orthogonalEdgeStyle;rounded=0;orthogonalLoop=1;jettySize=auto;html=1;entryX=1;entryY=0.25;entryDx=0;entryDy=0;exitX=1;exitY=0.5;exitDx=0;exitDy=0;" edge="1" parent="1" source="K0k_YKdBiOKbLavumed3-79" target="K0k_YKdBiOKbLavumed3-6">
          <mxGeometry relative="1" as="geometry">
            <mxPoint x="520" y="210" as="targetPoint" />
            <mxPoint x="570" y="910" as="sourcePoint" />
            <Array as="points">
              <mxPoint x="680" y="940" />
              <mxPoint x="680" y="216" />
            </Array>
          </mxGeometry>
        </mxCell>
        <mxCell id="K0k_YKdBiOKbLavumed3-80" value="" style="edgeStyle=orthogonalEdgeStyle;rounded=0;orthogonalLoop=1;jettySize=auto;html=1;" edge="1" parent="1" source="K0k_YKdBiOKbLavumed3-67" target="K0k_YKdBiOKbLavumed3-79">
          <mxGeometry relative="1" as="geometry" />
        </mxCell>
        <mxCell id="K0k_YKdBiOKbLavumed3-67" value="vraag &#39;&#39;Wilt u nog&amp;nbsp;&lt;div&gt;meer bestellen?&#39;&#39;&lt;/div&gt;" style="shape=parallelogram;perimeter=parallelogramPerimeter;whiteSpace=wrap;html=1;fixedSize=1;" vertex="1" parent="1">
          <mxGeometry x="350" y="800" width="140" height="70" as="geometry" />
        </mxCell>
        <mxCell id="K0k_YKdBiOKbLavumed3-72" value="ja" style="text;html=1;align=center;verticalAlign=middle;resizable=0;points=[];autosize=1;strokeColor=none;fillColor=none;" vertex="1" parent="1">
          <mxGeometry x="490" y="910" width="30" height="30" as="geometry" />
        </mxCell>
        <mxCell id="K0k_YKdBiOKbLavumed3-77" value="" style="edgeStyle=orthogonalEdgeStyle;rounded=0;orthogonalLoop=1;jettySize=auto;html=1;" edge="1" parent="1" source="K0k_YKdBiOKbLavumed3-74" target="K0k_YKdBiOKbLavumed3-76">
          <mxGeometry relative="1" as="geometry" />
        </mxCell>
        <mxCell id="K0k_YKdBiOKbLavumed3-74" value="print &#39;&#39;Bedankt en tot ziens!&#39;&#39;" style="shape=parallelogram;perimeter=parallelogramPerimeter;whiteSpace=wrap;html=1;fixedSize=1;" vertex="1" parent="1">
          <mxGeometry x="350" y="1040" width="140" height="70" as="geometry" />
        </mxCell>
        <mxCell id="K0k_YKdBiOKbLavumed3-76" value="end" style="rounded=1;whiteSpace=wrap;html=1;" vertex="1" parent="1">
          <mxGeometry x="360" y="1140" width="120" height="60" as="geometry" />
        </mxCell>
        <mxCell id="K0k_YKdBiOKbLavumed3-78" value="nee" style="text;html=1;align=center;verticalAlign=middle;resizable=0;points=[];autosize=1;strokeColor=none;fillColor=none;" vertex="1" parent="1">
          <mxGeometry x="420" y="990" width="40" height="30" as="geometry" />
        </mxCell>
        <mxCell id="K0k_YKdBiOKbLavumed3-81" value="" style="edgeStyle=orthogonalEdgeStyle;rounded=0;orthogonalLoop=1;jettySize=auto;html=1;" edge="1" parent="1" source="K0k_YKdBiOKbLavumed3-79" target="K0k_YKdBiOKbLavumed3-74">
          <mxGeometry relative="1" as="geometry" />
        </mxCell>
        <mxCell id="K0k_YKdBiOKbLavumed3-84" value="" style="edgeStyle=orthogonalEdgeStyle;rounded=0;orthogonalLoop=1;jettySize=auto;html=1;" edge="1" parent="1" source="K0k_YKdBiOKbLavumed3-79" target="K0k_YKdBiOKbLavumed3-83">
          <mxGeometry relative="1" as="geometry" />
        </mxCell>
        <mxCell id="K0k_YKdBiOKbLavumed3-79" value="nog een besteling?" style="rhombus;whiteSpace=wrap;html=1;" vertex="1" parent="1">
          <mxGeometry x="380" y="900" width="80" height="80" as="geometry" />
        </mxCell>
        <mxCell id="K0k_YKdBiOKbLavumed3-86" style="edgeStyle=orthogonalEdgeStyle;rounded=0;orthogonalLoop=1;jettySize=auto;html=1;entryX=0;entryY=0.5;entryDx=0;entryDy=0;" edge="1" parent="1" source="K0k_YKdBiOKbLavumed3-83" target="K0k_YKdBiOKbLavumed3-67">
          <mxGeometry relative="1" as="geometry">
            <Array as="points">
              <mxPoint x="260" y="835" />
            </Array>
          </mxGeometry>
        </mxCell>
        <mxCell id="K0k_YKdBiOKbLavumed3-83" value="print &#39;&#39;Sorry, dat snap ik niet...&#39;&#39;" style="whiteSpace=wrap;html=1;" vertex="1" parent="1">
          <mxGeometry x="200" y="910" width="120" height="60" as="geometry" />
        </mxCell>
        <mxCell id="K0k_YKdBiOKbLavumed3-85" value="else" style="text;html=1;align=center;verticalAlign=middle;resizable=0;points=[];autosize=1;strokeColor=none;fillColor=none;" vertex="1" parent="1">
          <mxGeometry x="330" y="910" width="50" height="30" as="geometry" />
        </mxCell>
      </root>
    </mxGraphModel>
  </diagram>
</mxfile>
